{"asset":{"version":"2.0","generator":"THREE.GLTFExporter"},"scenes":[{"name":"default","nodes":[0]}],"scene":0,"nodes":[{"name":"spaceship","extras":{"data":{"name":"spaceship","points":[{"name":"Origin","pos":{"x":0,"y":0,"z":0}}],"billboard":{"enabled":false,"y":false},"directional":{"enabled":false,"mode":"cameraAngle","angles":[]},"custom":[],"instances":[{"name":"spaceship","uuid":"BF40720B-D473-4964-8937-0089D927222B","parent":null,"pos":{"x":0,"y":0,"z":0},"rot":{"x":0,"y":0,"z":0,"order":"XYZ"},"sca":{"x":1,"y":1,"z":1},"custom":[]}]}},"mesh":0}],"bufferViews":[{"buffer":0,"byteOffset":0,"byteLength":16560,"target":34962,"byteStride":12},{"buffer":0,"byteOffset":16560,"byteLength":16560,"target":34962,"byteStride":12},{"buffer":0,"byteOffset":33120,"byteLength":11040,"target":34962,"byteStride":8},{"buffer":0,"byteOffset":44160,"byteLength":11040,"target":34962,"byteStride":8},{"buffer":0,"byteOffset":55200,"byteLength":2760,"target":34963}],"buffers":[{"byteLength":57960,"uri":"data:application/octet-stream;base64,"}],"accessors":[{"bufferView":0,"componentType":5126,"count":1380,"max":[6.142773628234863,3.8779892921447754,1.644055724143982],"min":[-6.142773628234863,-6.030343055725098,0.01200044248253107],"type":"VEC3"},{"bufferView":1,"componentType":5126,"count":1380,"max":[1,1,1],"min":[-1,-0.8600981831550598,-1],"type":"VEC3"},{"bufferView":2,"componentType":5126,"count":1380,"max":[0.875,1],"min":[0.1249999850988388,0],"type":"VEC2"},{"bufferView":3,"componentType":5126,"count":1380,"max":[-1,0],"min":[-1,0],"type":"VEC2"},{"bufferView":4,"componentType":5123,"count":1380,"max":[1379],"min":[0],"type":"SCALAR"}],"materials":[{"pbrMetallicRoughness":{"metallicFactor":0,"roughnessFactor":1,"baseColorTexture":{"index":0}},"alphaMode":"MASK","alphaCutoff":0.01,"doubleSided":true,"name":"texture_1"}],"textures":[{"sampler":0,"source":0,"name":"texture_1"}],"samplers":[{"magFilter":9728,"minFilter":9728,"wrapS":33071,"wrapT":33071}],"images":[{"mimeType":"image/png","uri":"data:image/png;base64,"}],"meshes":[{"primitives":[{"mode":4,"attributes":{"POSITION":0,"NORMAL":1,"TEXCOORD_0":2,"_UVANIMATION":3},"indices":4,"material":0}]}]}